<svg width="15" height="16" viewBox="0 0 15 16" fill="none" xmlns="http://www.w3.org/2000/svg">
<path fill-rule="evenodd" clip-rule="evenodd" d="M11.3086 0.614894L11.3093 1.21459C13.4994 1.38731 14.946 2.88895 14.9484 5.1918L14.957 11.9324C14.9602 14.4432 13.3926 15.988 10.88 15.992L4.74239 16C2.24545 16.0032 0.658264 14.4216 0.655124 11.9036L0.64649 5.24218C0.64335 2.92414 2.039 1.42649 4.22903 1.22419L4.22825 0.624489C4.22746 0.272665 4.4865 0.00799781 4.83188 0.00799781C5.17726 0.00719821 5.43629 0.271066 5.43708 0.62289L5.43786 1.18261L10.1005 1.17621L10.0997 0.616493C10.0989 0.264669 10.358 0.000801412 10.7033 1.81239e-06C11.0409 -0.000797787 11.3078 0.26307 11.3086 0.614894ZM1.85534 5.48986L13.7396 5.47387V5.19401C13.7058 3.47487 12.8487 2.57292 11.3101 2.43859L11.3109 3.05428C11.3109 3.39811 11.0448 3.67077 10.7073 3.67077C10.3619 3.67157 10.1021 3.3997 10.1021 3.05588L10.1013 2.4082L5.43867 2.4146L5.43945 3.06147C5.43945 3.4061 5.1812 3.67796 4.83582 3.67796C4.49044 3.67876 4.23062 3.4077 4.23062 3.06307L4.22984 2.44738C2.69917 2.6017 1.8522 3.50685 1.85456 5.24118L1.85534 5.48986ZM10.3773 9.12284V9.13163C10.3851 9.49945 10.6834 9.77851 11.0453 9.77051C11.3985 9.76171 11.6803 9.45707 11.6724 9.08925C11.656 8.73743 11.3726 8.45037 11.0201 8.45117C10.6591 8.45917 10.3765 8.75502 10.3773 9.12284ZM11.0249 12.7136C10.6638 12.7056 10.3726 12.4026 10.3718 12.0348C10.3639 11.667 10.6536 11.3623 11.0147 11.3535H11.0225C11.3914 11.3535 11.6905 11.6566 11.6905 12.0324C11.6913 12.4082 11.393 12.7128 11.0249 12.7136ZM7.1426 9.13767C7.1583 9.50549 7.45736 9.79255 7.81844 9.77655C8.17167 9.75976 8.45347 9.45591 8.43777 9.0881C8.42914 8.72828 8.13871 8.44842 7.78548 8.44922C7.4244 8.46521 7.14181 8.76986 7.1426 9.13767ZM7.82135 12.6769C7.46027 12.6929 7.16199 12.4059 7.14551 12.0381C7.14551 11.6702 7.42731 11.3664 7.78839 11.3496C8.14162 11.3488 8.43284 11.6287 8.44068 11.9877C8.45717 12.3563 8.17458 12.6602 7.82135 12.6769ZM3.9089 9.16502C3.9246 9.53283 4.22367 9.82069 4.58475 9.8039C4.93798 9.78791 5.21978 9.48326 5.20329 9.11544C5.19545 8.75562 4.90501 8.47576 4.551 8.47656C4.18992 8.49255 3.90812 8.7972 3.9089 9.16502ZM4.58882 12.6828C4.22775 12.6996 3.92946 12.4117 3.91298 12.0439C3.91219 11.6761 4.19478 11.3715 4.55586 11.3555C4.90909 11.3547 5.20031 11.6345 5.20816 11.9943C5.22464 12.3622 4.94284 12.6668 4.58882 12.6828Z" fill="#AFAFAF"/>
</svg>
