<svg width="128" height="40" viewBox="0 0 128 40" fill="none" xmlns="http://www.w3.org/2000/svg">
<path d="M23.3173 13.2529C25.0902 11.4275 27.4992 10.4219 30.0394 10.4219C32.5797 10.4219 34.9886 11.4275 36.8141 13.2791C38.6395 15.1308 39.5926 17.6185 39.5926 20.397C39.5926 22.7252 38.9302 24.8152 37.6339 26.5356C35.8085 28.9708 33.0037 30.3722 30.0394 30.3722C27.5255 30.3722 25.1185 29.3666 23.3173 27.5149C21.4657 25.6087 20.4863 23.1755 20.4863 20.397C20.4863 17.6185 21.4657 15.157 23.3173 13.2529ZM30.0394 26.1398C32.7917 26.1398 34.9886 23.7308 34.9886 20.397C34.9886 17.0632 32.7917 14.628 30.0394 14.628C27.2872 14.628 25.0923 17.0632 25.0923 20.397C25.0923 23.7308 27.2892 26.1398 30.0394 26.1398Z" fill="white"/>
<path d="M10.3871 22.2713H14.1913V25.7384C13.1696 26.2352 11.8732 26.4876 10.3325 26.4876C8.56973 26.4876 7.1825 25.9201 6.09008 24.755C4.98959 23.5798 4.45448 22.1138 4.45448 20.2703C4.45448 18.5499 4.98959 17.1545 6.08806 16.0076C7.18048 14.8647 8.56973 14.3094 10.3346 14.3094C12.1882 14.3094 13.7047 14.8566 14.8476 15.9349L15.1949 16.262L18.3571 13.1524L17.9512 12.801C16.1177 11.2139 13.5472 10.4082 10.3083 10.4082C7.30366 10.4082 4.80987 11.3391 2.89764 13.1746C0.973283 15.0182 0 17.4736 0 20.4742C0 23.4748 0.973283 25.8232 2.89562 27.6466C4.80987 29.4639 7.30164 30.3847 10.3063 30.3847C13.311 30.3847 15.8694 29.7648 18.2198 28.5432L18.4863 28.4038V18.3701H10.3891V22.2693L10.3871 22.2713Z" fill="white"/>
<path d="M73.4772 23.1874C73.1723 23.1874 72.8654 23.0703 72.6331 22.838L69.0066 19.2115C68.7824 18.9873 68.6572 18.6844 68.6572 18.3674C68.6572 18.0504 68.7824 17.7475 69.0066 17.5234L71.0844 15.4455C71.5508 14.9791 72.306 14.9791 72.7725 15.4455C73.2389 15.912 73.2389 16.6672 72.7725 17.1336L71.5387 18.3674L74.3212 21.1499C74.7877 21.6164 74.7877 22.3716 74.3212 22.838C74.089 23.0703 73.7821 23.1874 73.4772 23.1874Z" fill="white"/>
<path d="M44.3667 24.8534C44.0618 24.8534 43.7548 24.7363 43.5226 24.5041C43.0562 24.0376 43.0562 23.2824 43.5226 22.816L44.7564 21.5822L41.9739 18.7997C41.5074 18.3332 41.5074 17.578 41.9739 17.1116C42.4403 16.6451 43.1955 16.6451 43.662 17.1116L47.2885 20.7381C47.755 21.2046 47.755 21.9598 47.2885 22.4262L45.2107 24.5041C44.9785 24.7363 44.6716 24.8534 44.3667 24.8534Z" fill="white"/>
<path d="M75.2671 1.39783C73.4014 -0.465944 70.3785 -0.465944 68.5147 1.39783L56.6678 13.2468L51.3208 7.89985C49.455 6.03607 46.4321 6.03607 44.5663 7.89985C42.7005 9.76564 42.7005 12.7885 44.5663 14.6543L51.3894 21.4773L56.2437 16.623C57.1403 15.7285 58.3538 15.2237 59.6199 15.2237C60.886 15.2237 62.1016 15.7265 62.9961 16.623L64.8962 18.5232L75.2671 8.15225C77.1329 6.28646 77.1329 3.26363 75.2671 1.39783Z" fill="url(#paint0_linear_2771_4643)"/>
<path d="M56.6657 24.7742C55.4441 24.7742 54.2224 24.3078 53.2895 23.3749L51.3894 21.4747L41.0185 31.8457C39.1527 33.7115 39.1527 36.7343 41.0185 38.6001C41.9514 39.533 43.173 39.9994 44.3947 39.9994C45.6163 39.9994 46.838 39.533 47.7709 38.6001L59.6179 26.7511L64.9649 32.0981C66.8307 33.9618 69.8535 33.9618 71.7193 32.0981C73.5851 30.2323 73.5851 27.2094 71.7193 25.3436L64.8942 18.5186L60.0399 23.3729C59.107 24.3058 57.8854 24.7722 56.6637 24.7722L56.6657 24.7742Z" fill="url(#paint1_linear_2771_4643)"/>
<path d="M59.6201 15.2256C58.3541 15.2256 57.1385 15.7284 56.2439 16.6249L51.3896 21.4792L53.2898 23.3794C54.2227 24.3122 55.4443 24.7787 56.666 24.7787C57.8876 24.7787 59.1093 24.3122 60.0422 23.3794L64.8965 18.5251L62.9963 16.6249C62.0998 15.7304 60.8862 15.2256 59.6201 15.2256Z" fill="url(#paint2_linear_2771_4643)"/>
<path d="M76.6406 29.7728H80.8629V22.3965H88.9076V18.5619H80.8629V14.8707H89.3983V11.0361H76.6406V29.7728Z" fill="white"/>
<path d="M101.714 22.6388L97.1704 11.0361H91.4014V29.7728H95.4682V17.0737L100.24 29.7728H103.184L107.955 17.0737V29.7728H112.024V11.0361H106.308L101.714 22.6388Z" fill="white"/>
<path d="M124.745 19.5673C124.083 19.2281 123.348 18.911 122.564 18.6243C121.793 18.3436 121.068 18.1033 120.408 17.9115C119.832 17.7459 119.348 17.4955 118.966 17.1684C118.637 16.8877 118.483 16.5606 118.483 16.1406C118.483 15.5389 118.695 15.1189 119.152 14.818C119.661 14.4828 120.295 14.3132 121.03 14.3132C122.344 14.3132 123.277 14.715 123.883 15.5409L124.228 16.0114L127.404 12.7543L127.031 12.409C125.595 11.0864 123.691 10.416 121.371 10.416C119.404 10.416 117.686 10.9228 116.26 11.9224C114.78 12.9603 114.029 14.4566 114.029 16.3728C114.029 17.3158 114.211 18.1518 114.568 18.8545C114.927 19.5633 115.404 20.1266 115.987 20.5305C116.533 20.9081 117.145 21.2312 117.807 21.4896C118.447 21.74 119.095 21.9642 119.735 22.154C120.347 22.3357 120.91 22.5316 121.405 22.7375C121.847 22.9193 122.209 23.1717 122.479 23.4847C122.726 23.7694 122.845 24.1046 122.845 24.5125C122.845 25.1304 122.599 25.5786 122.074 25.9219C121.486 26.3056 120.836 26.4913 120.089 26.4913C118.659 26.4913 117.591 25.9441 116.825 24.8194L116.498 24.3388L113.239 27.4101L113.55 27.7695C115.059 29.5081 117.231 30.3905 120.01 30.3905C122.053 30.3905 123.788 29.8534 125.165 28.7953C126.58 27.7069 127.299 26.1359 127.299 24.1288C127.299 23.0364 127.053 22.0873 126.568 21.3039C126.086 20.5244 125.472 19.9388 124.747 19.5673H124.745Z" fill="white"/>
<defs>
<linearGradient id="paint0_linear_2771_4643" x1="71.0731" y1="10.7389" x2="47.3327" y2="10.7389" gradientUnits="userSpaceOnUse">
<stop stop-color="white" stop-opacity="0.5"/>
<stop offset="1" stop-color="white"/>
</linearGradient>
<linearGradient id="paint1_linear_2771_4643" x1="39.6212" y1="29.261" x2="73.1186" y2="29.261" gradientUnits="userSpaceOnUse">
<stop stop-color="white" stop-opacity="0.5"/>
<stop offset="1" stop-color="white"/>
</linearGradient>
<linearGradient id="paint2_linear_2771_4643" x1="67.8587" y1="20.0011" x2="53.4271" y2="20.0011" gradientUnits="userSpaceOnUse">
<stop stop-color="white" stop-opacity="0.3"/>
<stop offset="1" stop-color="white"/>
</linearGradient>
</defs>
</svg>
